<svg width="57" height="45" viewBox="0 0 57 45" fill="none" xmlns="http://www.w3.org/2000/svg">
<path d="M6.82064 33.0119C4.63803 33.0119 2.52364 32.8755 0 32.3298L0.409238 27.76C2.66005 28.2374 4.63803 28.3056 6.47961 28.3056C11.4587 28.3056 15.2782 26.7369 17.9383 24.2133C10.1627 21.144 6.61602 15.7557 6.61602 9.88993C6.61602 4.09239 10.572 0 16.6424 0C22.7809 0 27.4872 4.63803 27.4872 12.4818C27.4872 15.6193 26.8733 18.6886 25.7138 21.4168C28.1692 21.826 30.9657 22.0307 34.1032 22.0307C38.8094 22.0307 43.311 21.6896 47.8809 21.2122L33.9668 6.07037L37.6499 2.86467L56.202 23.463L37.6499 44.1295L33.9668 40.9238L47.4716 25.9866C43.1746 26.5323 38.673 26.8051 34.1714 26.8051C29.9426 26.8051 26.3277 26.3959 23.122 25.7138C19.6434 30.1472 14.1187 33.0119 6.82064 33.0119ZM11.7997 9.88993C11.7997 14.0505 14.4598 17.9383 20.8029 20.1209C21.826 17.8701 22.3717 15.2782 22.3717 12.55C22.3717 7.70732 20.1209 4.63803 16.5741 4.63803C13.6413 4.63803 11.7997 6.61602 11.7997 9.88993Z" fill="#D75338"/>
</svg>
