<svg width="14" height="16" viewBox="0 0 14 16" fill="none" xmlns="http://www.w3.org/2000/svg">
<path d="M12.75 6.66602C12.75 11.3327 6.75 15.3327 6.75 15.3327C6.75 15.3327 0.75 11.3327 0.75 6.66602C0.75 5.07472 1.38214 3.54859 2.50736 2.42337C3.63258 1.29816 5.1587 0.666016 6.75 0.666016C8.3413 0.666016 9.86742 1.29816 10.9926 2.42337C12.1179 3.54859 12.75 5.07472 12.75 6.66602Z" stroke="#161616" stroke-width="1.5" stroke-linecap="round" stroke-linejoin="round"/>
<path d="M6.75 8.66602C7.85457 8.66602 8.75 7.77059 8.75 6.66602C8.75 5.56145 7.85457 4.66602 6.75 4.66602C5.64543 4.66602 4.75 5.56145 4.75 6.66602C4.75 7.77059 5.64543 8.66602 6.75 8.66602Z" stroke="#161616" stroke-width="1.5" stroke-linecap="round" stroke-linejoin="round"/>
</svg>
