<svg width="38" height="38" viewBox="0 0 38 38" fill="none" xmlns="http://www.w3.org/2000/svg">
<path d="M16.8008 4.76309H4.55078C3.62252 4.76309 2.73228 5.13184 2.07591 5.78822C1.41953 6.4446 1.05078 7.33483 1.05078 8.26309V32.7631C1.05078 33.6913 1.41953 34.5816 2.07591 35.238C2.73228 35.8943 3.62252 36.2631 4.55078 36.2631H29.0508C29.979 36.2631 30.8693 35.8943 31.5257 35.238C32.182 34.5816 32.5508 33.6913 32.5508 32.7631V20.5131M29.9258 2.13809C30.622 1.4419 31.5662 1.05078 32.5508 1.05078C33.5353 1.05078 34.4796 1.4419 35.1758 2.13809C35.872 2.83429 36.2631 3.77853 36.2631 4.76309C36.2631 5.74766 35.872 6.6919 35.1758 7.38809L18.5508 24.0131L11.5508 25.7631L13.3008 18.7631L29.9258 2.13809Z" stroke="#163932" stroke-width="2.1" stroke-linecap="round" stroke-linejoin="round"/>
</svg>
