<svg width="170" height="28" viewBox="0 0 170 28" fill="none" xmlns="http://www.w3.org/2000/svg">
<path d="M17.8151 20.3691C20.1601 20.3691 21.5951 18.5491 21.5951 15.7141C21.5951 12.2841 20.3701 7.94406 17.9551 5.35406C15.1901 8.01406 14.0001 12.5291 14.0001 15.7141C14.0001 18.5491 15.4701 20.3691 17.8151 20.3691ZM7.81417e-05 26.9141L3.92008 9.06406C5.18008 3.25406 8.50508 0.384062 13.1951 0.384062C15.0851 0.384062 16.7301 0.979061 18.1301 1.92406C19.7051 0.979061 21.5251 0.384062 23.6251 0.384062C29.1901 0.384062 32.8651 4.26906 32.8651 11.1641C32.8651 15.5391 31.5351 20.7891 28.5251 26.9141H25.3051C28.3851 20.7891 29.8901 15.6441 29.8901 11.2691C29.8901 6.54406 27.7551 3.07906 23.4851 3.07906C22.2601 3.07906 21.1751 3.32406 20.2301 3.77906C23.1701 7.10406 24.6051 12.2141 24.6051 15.7491C24.6051 20.1941 21.9101 23.0991 17.7801 23.0991C13.6851 23.0991 11.0251 20.2641 11.0251 15.7491C11.0251 12.3191 12.5651 7.13906 15.8551 3.74406C15.0501 3.32406 14.1401 3.07906 13.1251 3.07906C9.97508 3.07906 7.80508 5.10906 6.86008 9.30906L2.97508 26.9141H7.81417e-05ZM45.0896 27.1941C39.7346 27.1941 36.2696 23.4141 36.2696 18.3041C36.2696 13.1591 39.8746 9.37906 44.9146 9.37906C49.7796 9.37906 53.1746 12.7391 53.1746 17.5341C53.1746 17.9541 53.1396 18.4791 53.0696 18.9691H39.1396C39.3846 22.5041 41.6596 24.7441 45.0896 24.7441C47.9596 24.7441 49.6396 23.3791 50.3396 21.1741L52.9996 21.6641C52.1596 25.0591 49.1496 27.1941 45.0896 27.1941ZM39.2446 16.6941H50.2346C49.9896 13.7891 47.9246 11.7591 44.9146 11.7591C42.1846 11.7591 39.8046 13.4741 39.2446 16.6941ZM64.9822 27.1941C59.6272 27.1941 56.1622 23.4141 56.1622 18.3041C56.1622 13.1591 59.7672 9.37906 64.8072 9.37906C69.6722 9.37906 73.0672 12.7391 73.0672 17.5341C73.0672 17.9541 73.0322 18.4791 72.9622 18.9691H59.0322C59.2772 22.5041 61.5522 24.7441 64.9822 24.7441C67.8522 24.7441 69.5322 23.3791 70.2322 21.1741L72.8922 21.6641C72.0522 25.0591 69.0422 27.1941 64.9822 27.1941ZM59.1372 16.6941H70.1272C69.8822 13.7891 67.8172 11.7591 64.8072 11.7591C62.0772 11.7591 59.6972 13.4741 59.1372 16.6941ZM85.3205 10.9191C85.3205 9.83406 85.2155 8.81906 84.9705 7.87406C83.0105 9.20406 80.9105 10.3241 78.4255 10.3241C74.9955 10.3241 72.5455 8.11906 72.5455 5.17906C72.5455 2.23906 75.1005 -0.000939369 78.6355 -0.000939369C81.2955 -0.000939369 84.2005 1.18906 86.1255 3.74406C88.3655 2.02906 90.7455 0.454061 93.6855 0.454061C96.9055 0.454061 99.3905 2.37906 99.4955 5.87906H96.5205C96.4155 4.26906 95.4355 3.18406 93.6505 3.18406C91.4455 3.18406 89.4855 4.54906 87.4205 6.05406C87.9805 7.45406 88.2955 9.13406 88.2955 11.1641V26.9141H85.3205V10.9191ZM75.4855 5.14406C75.4855 6.64906 76.7455 7.66406 78.6005 7.66406C80.4905 7.66406 82.1705 6.64906 83.9205 5.42406C82.7655 3.67406 80.9805 2.65906 78.6705 2.65906C76.7455 2.65906 75.4855 3.67406 75.4855 5.14406ZM98.7138 26.9141V9.65906H101.339L101.444 12.4941C102.424 10.6391 104.209 9.41406 106.624 9.41406C107.324 9.41406 107.814 9.48406 108.444 9.69406L107.954 12.3541C107.359 12.2141 106.834 12.1441 106.239 12.1441C103.579 12.1441 101.479 14.1041 101.479 17.9541V26.9141H98.7138ZM115.494 27.1941C112.274 27.1941 109.999 25.3391 109.999 22.4691C109.999 19.1441 112.589 17.7091 116.229 16.8341L121.864 15.4691C121.584 13.0541 119.974 11.7941 117.489 11.7941C115.074 11.7941 113.254 12.9141 112.659 15.2241L109.964 14.7341C110.699 11.4441 113.604 9.37906 117.489 9.37906C121.794 9.37906 124.524 11.8641 124.524 16.0291V26.9141H122.004L121.864 23.6941C120.604 25.9691 118.294 27.1941 115.494 27.1941ZM112.869 22.2591C112.869 23.7291 113.989 24.8141 115.879 24.8141C119.029 24.8141 121.899 22.5041 121.899 18.1641V17.7091L116.579 19.0391C114.059 19.6341 112.869 20.5441 112.869 22.2591ZM133.71 26.9141L126.92 9.65906H129.965L135.32 23.7291L140.71 9.65906H143.615L136.79 26.9141H133.71ZM153.952 27.1941C148.597 27.1941 145.132 23.4141 145.132 18.3041C145.132 13.1591 148.737 9.37906 153.777 9.37906C158.642 9.37906 162.037 12.7391 162.037 17.5341C162.037 17.9541 162.002 18.4791 161.932 18.9691H148.002C148.247 22.5041 150.522 24.7441 153.952 24.7441C156.822 24.7441 158.502 23.3791 159.202 21.1741L161.862 21.6641C161.022 25.0591 158.012 27.1941 153.952 27.1941ZM148.107 16.6941H159.097C158.852 13.7891 156.787 11.7591 153.777 11.7591C151.047 11.7591 148.667 13.4741 148.107 16.6941ZM166.287 26.9141V0.66406H169.052V26.9141H166.287Z" fill="#FCFBF7"/>
</svg>
