<svg width="178" height="29" viewBox="0 0 178 29" fill="none" xmlns="http://www.w3.org/2000/svg">
<path d="M18.6908 21.3714C21.151 21.3714 22.6566 19.4619 22.6566 16.4875C22.6566 12.8889 21.3714 8.33557 18.8377 5.61825C15.9367 8.40901 14.6882 13.146 14.6882 16.4875C14.6882 19.4619 16.2305 21.3714 18.6908 21.3714ZM0 28.2381L4.1127 9.51063C5.43464 3.41501 8.9231 0.403928 13.8437 0.403928C15.8266 0.403928 17.5524 1.02818 19.0213 2.01963C20.6737 1.02818 22.5831 0.403928 24.7864 0.403928C30.625 0.403928 34.4806 4.47991 34.4806 11.7139C34.4806 16.3039 33.0852 21.812 29.9273 28.2381H26.549C29.7804 21.812 31.3594 16.4141 31.3594 11.824C31.3594 6.86675 29.1194 3.23141 24.6395 3.23141C23.3543 3.23141 22.2159 3.48845 21.2245 3.96582C24.309 7.45428 25.8146 12.8155 25.8146 16.5243C25.8146 21.1878 22.9871 24.2356 18.654 24.2356C14.3577 24.2356 11.567 21.2612 11.567 16.5243C11.567 12.9256 13.1827 7.491 16.6344 3.9291C15.7898 3.48846 14.8351 3.23141 13.7702 3.23141C10.4654 3.23141 8.18869 5.3612 7.19723 9.76767L3.12125 28.2381H0Z" fill="#D75338"/>
<path d="M47.3061 28.5319C41.6879 28.5319 38.0525 24.5661 38.0525 19.2049C38.0525 13.8069 41.8348 9.84111 47.1225 9.84111C52.2267 9.84111 55.7886 13.3663 55.7886 18.397C55.7886 18.8377 55.7519 19.3885 55.6784 19.9025H41.0636C41.3207 23.6113 43.7075 25.9614 47.3061 25.9614C50.3172 25.9614 52.0798 24.5293 52.8142 22.2159L55.605 22.73C54.7237 26.2919 51.5657 28.5319 47.3061 28.5319ZM41.1738 17.5157H52.7041C52.447 14.4679 50.2805 12.3381 47.1225 12.3381C44.2583 12.3381 41.7613 14.1374 41.1738 17.5157Z" fill="#D75338"/>
<path d="M68.1766 28.5319C62.5584 28.5319 58.923 24.5661 58.923 19.2049C58.923 13.8069 62.7052 9.84111 67.993 9.84111C73.0972 9.84111 76.6591 13.3663 76.6591 18.397C76.6591 18.8377 76.6223 19.3885 76.5489 19.9025H61.9341C62.1912 23.6113 64.578 25.9614 68.1766 25.9614C71.1877 25.9614 72.9503 24.5293 73.6847 22.2159L76.4755 22.73C75.5942 26.2919 72.4362 28.5319 68.1766 28.5319ZM62.0443 17.5157H73.5745C73.3175 14.4679 71.151 12.3381 67.993 12.3381C65.1288 12.3381 62.6318 14.1374 62.0443 17.5157Z" fill="#D75338"/>
<path d="M89.5147 11.4568C89.5147 10.3185 89.4045 9.25358 89.1475 8.26213C87.0911 9.65751 84.8879 10.8326 82.2807 10.8326C78.6821 10.8326 76.1117 8.51917 76.1117 5.43464C76.1117 2.35012 78.7923 0 82.5011 0C85.2918 0 88.3396 1.2485 90.3593 3.9291C92.7094 2.12979 95.2064 0.477368 98.2909 0.477368C101.669 0.477368 104.276 2.497 104.387 6.16906H101.265C101.155 4.47991 100.127 3.34157 98.2542 3.34157C95.9408 3.34157 93.8845 4.77367 91.7179 6.35266C92.3055 7.82148 92.636 9.58407 92.636 11.7139V28.2381H89.5147V11.4568ZM79.1962 5.39792C79.1962 6.97691 80.5182 8.04181 82.4644 8.04181C84.4473 8.04181 86.2099 6.97691 88.0459 5.69169C86.8341 3.85566 84.9614 2.79076 82.5378 2.79076C80.5182 2.79076 79.1962 3.85566 79.1962 5.39792Z" fill="#D75338"/>
<path d="M103.566 28.2381V10.1349H106.32L106.431 13.1092C107.459 11.1631 109.331 9.87783 111.865 9.87783C112.6 9.87783 113.114 9.95127 113.775 10.1716L113.261 12.9624C112.636 12.8155 112.086 12.742 111.461 12.742C108.671 12.742 106.467 14.7984 106.467 18.8377V28.2381H103.566Z" fill="#D75338"/>
<path d="M121.172 28.5319C117.794 28.5319 115.407 26.5857 115.407 23.5746C115.407 20.0862 118.124 18.5806 121.943 17.6626L127.855 16.2305C127.561 13.6968 125.872 12.3748 123.265 12.3748C120.731 12.3748 118.822 13.5499 118.197 15.9734L115.37 15.4594C116.141 12.0076 119.189 9.84111 123.265 9.84111C127.782 9.84111 130.646 12.4483 130.646 16.818V28.2381H128.002L127.855 24.8598C126.533 27.2467 124.109 28.5319 121.172 28.5319ZM118.418 23.3543C118.418 24.8965 119.593 26.0349 121.576 26.0349C124.881 26.0349 127.892 23.6113 127.892 19.058V18.5806L122.31 19.976C119.666 20.6002 118.418 21.555 118.418 23.3543Z" fill="#D75338"/>
<path d="M140.283 28.2381L133.159 10.1349H136.354L141.972 24.8965L147.627 10.1349H150.675L143.514 28.2381H140.283Z" fill="#D75338"/>
<path d="M161.52 28.5319C155.902 28.5319 152.266 24.5661 152.266 19.2049C152.266 13.8069 156.049 9.84111 161.336 9.84111C166.441 9.84111 170.002 13.3663 170.002 18.397C170.002 18.8377 169.966 19.3885 169.892 19.9025H155.278C155.535 23.6113 157.921 25.9614 161.52 25.9614C164.531 25.9614 166.294 24.5293 167.028 22.2159L169.819 22.73C168.938 26.2919 165.78 28.5319 161.52 28.5319ZM155.388 17.5157H166.918C166.661 14.4679 164.494 12.3381 161.336 12.3381C158.472 12.3381 155.975 14.1374 155.388 17.5157Z" fill="#D75338"/>
<path d="M174.461 28.2381V0.697691H177.362V28.2381H174.461Z" fill="#D75338"/>
</svg>
