<svg width="324" height="52" viewBox="0 0 324 52" fill="none" xmlns="http://www.w3.org/2000/svg">
<path d="M34.0616 38.9467C38.5451 38.9467 41.2888 35.4669 41.2888 30.0465C41.2888 23.4884 38.9467 15.1905 34.3293 10.2386C29.0427 15.3244 26.7675 23.9569 26.7675 30.0465C26.7675 35.4669 29.578 38.9467 34.0616 38.9467ZM0 51.4604L7.49489 17.3319C9.90396 6.22343 16.2612 0.736108 25.2283 0.736108C28.8419 0.736108 31.9871 1.87372 34.6639 3.68053C37.6752 1.87372 41.155 0.736108 45.1701 0.736108C55.8102 0.736108 62.8366 8.16408 62.8366 21.347C62.8366 29.7119 60.2937 39.7497 54.5387 51.4604H48.3822C54.271 39.7497 57.1485 29.9126 57.1485 21.5478C57.1485 12.5138 53.0665 5.88884 44.9024 5.88884C42.5603 5.88884 40.4858 6.35727 38.679 7.22722C44.3001 13.5845 47.0438 23.3546 47.0438 30.1134C47.0438 38.6121 41.8911 44.1663 33.9947 44.1663C26.1652 44.1663 21.0794 38.7459 21.0794 30.1134C21.0794 23.5554 24.0238 13.6514 30.3141 7.16029C28.775 6.35727 27.0351 5.88884 25.0945 5.88884C19.0718 5.88884 14.9229 9.77012 13.1161 17.8004L5.68809 51.4604H0Z" fill="#FCF8EA"/>
<path d="M86.2095 51.9958C75.971 51.9958 69.346 44.7686 69.346 34.9985C69.346 25.1614 76.2386 17.9342 85.8749 17.9342C95.1766 17.9342 101.668 24.3584 101.668 33.5262C101.668 34.3293 101.601 35.333 101.467 36.2699H74.8333C75.3018 43.0287 79.6515 47.3115 86.2095 47.3115C91.6968 47.3115 94.9089 44.7017 96.2473 40.4858L101.333 41.4226C99.7271 47.9137 93.9721 51.9958 86.2095 51.9958ZM75.0341 31.9202H96.0465C95.5781 26.3659 91.6299 22.4847 85.8749 22.4847C80.6553 22.4847 76.1048 25.7637 75.0341 31.9202Z" fill="#FCF8EA"/>
<path d="M124.243 51.9958C114.005 51.9958 107.38 44.7686 107.38 34.9985C107.38 25.1614 114.272 17.9342 123.909 17.9342C133.21 17.9342 139.702 24.3584 139.702 33.5262C139.702 34.3293 139.635 35.333 139.501 36.2699H112.867C113.336 43.0287 117.685 47.3115 124.243 47.3115C129.731 47.3115 132.943 44.7017 134.281 40.4858L139.367 41.4226C137.761 47.9137 132.006 51.9958 124.243 51.9958ZM113.068 31.9202H134.08C133.612 26.3659 129.664 22.4847 123.909 22.4847C118.689 22.4847 114.139 25.7637 113.068 31.9202Z" fill="#FCF8EA"/>
<path d="M163.129 20.8786C163.129 18.8041 162.929 16.8635 162.46 15.0567C158.713 17.5996 154.698 19.741 149.946 19.741C143.388 19.741 138.704 15.5251 138.704 9.90396C138.704 4.28279 143.589 0 150.348 0C155.434 0 160.988 2.27524 164.668 7.16029C168.951 3.88128 173.502 0.869943 179.123 0.869943C185.279 0.869943 190.031 4.55047 190.231 11.2423H184.543C184.343 8.16408 182.469 6.0896 179.056 6.0896C174.84 6.0896 171.093 8.69942 167.144 11.5769C168.215 14.2537 168.817 17.4658 168.817 21.347V51.4604H163.129V20.8786ZM144.325 9.83704C144.325 12.7145 146.734 14.6552 150.281 14.6552C153.895 14.6552 157.107 12.7145 160.453 10.3724C158.244 7.02646 154.831 5.08582 150.415 5.08582C146.734 5.08582 144.325 7.02646 144.325 9.83704Z" fill="#FCF8EA"/>
<path d="M188.737 51.4604V18.4695H193.756L193.956 23.89C195.83 20.3433 199.243 18.0011 203.86 18.0011C205.199 18.0011 206.136 18.135 207.34 18.5365L206.403 23.6223C205.266 23.3546 204.262 23.2208 203.124 23.2208C198.038 23.2208 194.023 26.9682 194.023 34.3293V51.4604H188.737Z" fill="#FCF8EA"/>
<path d="M220.821 51.9958C214.664 51.9958 210.314 48.4491 210.314 42.9618C210.314 36.6045 215.266 33.8608 222.226 32.1879L233 29.578C232.464 24.9607 229.386 22.5516 224.635 22.5516C220.018 22.5516 216.538 24.693 215.4 29.1096L210.247 28.1728C211.653 21.8824 217.207 17.9342 224.635 17.9342C232.866 17.9342 238.086 22.6854 238.086 30.6487V51.4604H233.267L233 45.3039C230.591 49.6536 226.174 51.9958 220.821 51.9958ZM215.802 42.5603C215.802 45.3708 217.943 47.4453 221.557 47.4453C227.579 47.4453 233.067 43.0287 233.067 34.7308V33.8608L222.895 36.4037C218.077 37.5414 215.802 39.2812 215.802 42.5603Z" fill="#FCF8EA"/>
<path d="M255.647 51.4604L242.665 18.4695H248.487L258.726 45.3708L269.031 18.4695H274.586L261.536 51.4604H255.647Z" fill="#FCF8EA"/>
<path d="M294.35 51.9958C284.111 51.9958 277.487 44.7686 277.487 34.9985C277.487 25.1614 284.379 17.9342 294.015 17.9342C303.317 17.9342 309.808 24.3584 309.808 33.5262C309.808 34.3293 309.741 35.333 309.607 36.2699H282.974C283.442 43.0287 287.792 47.3115 294.35 47.3115C299.837 47.3115 303.049 44.7017 304.388 40.4858L309.474 41.4226C307.868 47.9137 302.113 51.9958 294.35 51.9958ZM283.175 31.9202H304.187C303.719 26.3659 299.77 22.4847 294.015 22.4847C288.796 22.4847 284.245 25.7637 283.175 31.9202Z" fill="#FCF8EA"/>
<path d="M317.934 51.4604V1.27145H323.221V51.4604H317.934Z" fill="#FCF8EA"/>
</svg>
