<svg width="143" height="143" viewBox="0 0 143 143" fill="none" xmlns="http://www.w3.org/2000/svg">
<circle cx="71.2031" cy="71.2031" r="71.2031" fill="#163932"/>
<path d="M69.2822 64.243C69.2822 61.267 68.9942 58.483 68.3222 55.891C62.9462 59.539 57.1862 62.611 50.3702 62.611C40.9622 62.611 34.2422 56.563 34.2422 48.499C34.2422 40.435 41.2502 34.291 50.9462 34.291C58.2422 34.291 66.2102 37.555 71.4902 44.563C77.6342 39.859 84.1622 35.539 92.2262 35.539C101.058 35.539 107.874 40.819 108.162 50.419H100.002C99.7142 46.003 97.0262 43.027 92.1302 43.027C86.0822 43.027 80.7062 46.771 75.0422 50.899C76.5782 54.739 77.4422 59.347 77.4422 64.915V108.115H69.2822V64.243ZM42.3062 48.403C42.3062 52.531 45.7622 55.315 50.8502 55.315C56.0342 55.315 60.6422 52.531 65.4422 49.171C62.2742 44.371 57.3782 41.587 51.0422 41.587C45.7622 41.587 42.3062 44.371 42.3062 48.403Z" fill="#EFEAD6"/>
</svg>
